<?xml version="1.0" standalone="no"?>
<!DOCTYPE svg PUBLIC "-//W3C//DTD SVG 20010904//EN"
 "http://www.w3.org/TR/2001/REC-SVG-20010904/DTD/svg10.dtd">
<svg version="1.0" xmlns="http://www.w3.org/2000/svg"
 width="20pt" height="20pt" viewBox="0 0 512.000000 512.000000"
 preserveAspectRatio="xMidYMid meet">

<g transform="translate(0.000000,512.000000) scale(0.100000,-0.100000)"
fill="current" stroke="none">
<path d="M2420 4384 c-107 -29 -210 -118 -257 -222 -22 -48 -27 -76 -31 -174
l-4 -118 -415 0 -414 0 -24 -25 -25 -24 0 -293 c1 -225 4 -297 14 -310 18 -24
59 -38 111 -38 l44 0 3 -1032 3 -1033 22 -59 c58 -151 165 -257 310 -305 61
-21 80 -21 790 -21 786 0 774 -1 882 55 68 34 161 125 194 191 60 118 57 64
57 1180 l0 1022 66 4 c58 4 70 8 90 32 l24 27 0 290 0 290 -25 24 -24 25 -409
0 -410 0 -4 113 c-6 139 -28 204 -99 281 -59 65 -117 100 -195 121 -73 19
-202 18 -274 -1z m249 -159 c62 -22 107 -61 136 -118 21 -44 25 -64 25 -144
l0 -93 -270 0 -270 0 0 93 c0 80 4 100 25 144 28 55 77 99 134 119 49 18 169
17 220 -1z m1041 -700 l0 -185 -1150 0 -1150 0 0 185 0 185 1150 0 1150 0 0
-185z m-172 -1367 l-3 -1023 -26 -56 c-33 -69 -89 -127 -155 -160 l-49 -24
-745 0 -745 0 -43 23 c-66 35 -119 88 -149 150 l-28 57 -3 1028 -2 1027 975 0
976 0 -3 -1022z"/>
<path d="M2003 2810 c-55 -22 -54 6 -51 -789 l3 -733 24 -19 c32 -26 77 -24
106 6 l25 24 0 734 c0 724 0 734 -20 755 -12 12 -25 22 -30 22 -4 0 -14 2 -22
4 -7 3 -23 1 -35 -4z"/>
<path d="M3061 2809 c-52 -21 -50 9 -51 -777 l0 -733 25 -24 c29 -30 74 -32
106 -6 l24 19 3 735 2 735 -22 25 c-28 31 -55 39 -87 26z"/>
<path d="M2505 2615 l-25 -24 0 -555 0 -555 23 -27 c33 -37 81 -37 114 0 l23
27 0 555 0 555 -25 24 c-15 16 -36 25 -55 25 -19 0 -40 -9 -55 -25z"/>
</g>
</svg>
