<?xml version="1.0" encoding="utf-8"?>
<!DOCTYPE svg PUBLIC "-//W3C//DTD SVG 20010904//EN" "http://www.w3.org/TR/2001/REC-SVG-20010904/DTD/svg10.dtd">
<svg version="1.0" xmlns="http://www.w3.org/2000/svg" width="65%" viewBox="0 0 514 514" style="" preserveAspectRatio="xMidYMid meet">
<g fill="current" stroke="#000000FF">
<path d="M 365.920 39.010 C 359.328 40.126 353.829 43.251 349.197 48.514 C 341.383 57.391 342.000 39.332 342.000 259.178 L 342.000 456.000 333.000 456.000 L 324.000 456.000 324.000 326.943 C 324.000 232.123 323.691 196.641 322.836 193.193 C 320.165 182.427 311.955 174.443 301.180 172.132 C 293.965 170.585 220.035 170.585 212.820 172.132 C 202.045 174.443 193.835 182.427 191.164 193.193 C 190.309 196.641 190.000 232.123 190.000 326.943 L 190.000 456.000 181.000 456.000 L 172.000 456.000 172.000 391.160 L 172.000 326.319 168.942 320.200 C 165.701 313.714 162.318 310.287 155.616 306.702 C 151.577 304.541 150.667 304.495 107.127 304.210 C 56.700 303.881 56.683 303.883 48.166 311.541 C 45.247 314.165 42.308 318.073 40.886 321.221 L 38.500 326.500 38.203 391.250 L 37.905 456.000 22.089 456.000 C 6.333 456.000 6.263 456.010 3.636 458.636 C 1.637 460.636 1.000 462.273 1.000 465.414 C 1.000 470.706 3.095 473.655 7.779 474.956 C 12.965 476.396 501.035 476.396 506.221 474.956 C 510.905 473.655 513.000 470.706 513.000 465.414 C 513.000 462.273 512.363 460.636 510.364 458.636 C 507.737 456.009 507.670 456.000 491.864 456.000 L 476.000 456.000 475.992 262.750 C 475.987 133.971 475.638 67.332 474.946 63.000 C 472.905 50.232 463.809 41.140 451.000 39.067 C 443.541 37.860 372.996 37.813 365.920 39.010 M 449.568 59.464 C 456.482 62.353 456.000 47.185 456.000 261.968 L 456.000 456.000 409.000 456.000 L 362.000 456.000 362.022 260.250 C 362.043 76.319 362.149 64.367 363.772 62.294 C 364.723 61.081 366.625 59.647 368.000 59.108 C 369.467 58.532 386.113 58.101 408.282 58.063 C 439.298 58.011 446.692 58.262 449.568 59.464 M 297.881 192.108 C 304.379 194.374 304.000 185.980 304.000 327.450 L 304.000 456.000 257.000 456.000 L 210.000 456.000 210.000 327.547 C 210.000 228.269 210.278 198.483 211.226 196.404 C 213.554 191.293 215.344 191.082 256.601 191.039 C 282.005 191.013 295.761 191.369 297.881 192.108 M 149.077 326.923 L 152.000 329.846 152.000 392.923 L 152.000 456.000 104.971 456.000 L 57.942 456.000 58.221 393.250 C 58.520 326.089 58.405 327.582 63.451 325.131 C 64.700 324.524 81.252 324.109 105.827 324.068 L 146.154 324.000 149.077 326.923 "/></g>
</svg>
