<svg version="1.1" id="Layer_1" xmlns="http://www.w3.org/2000/svg" xmlns:xlink="http://www.w3.org/1999/xlink" x="0px" y="0px"
	 width="80%" viewBox="0 0 512 512" enable-background="new 0 0 512 512" xml:space="preserve">
<path fill="current" opacity="1.000000" stroke="none" 
	d="
M181.999878,432.417053 
	C168.499954,432.415741 155.499847,432.458740 142.500214,432.398468 
	C131.790466,432.348816 125.116920,425.789581 124.818428,415.014862 
	C124.680023,410.018646 124.795311,405.015594 124.786171,400.015625 
	C124.772072,392.304535 124.768623,392.298920 117.292046,392.299438 
	C95.625534,392.300934 73.951630,391.974152 52.295650,392.454102 
	C41.660530,392.689789 32.172874,386.260010 32.477558,372.899292 
	C33.081554,346.413147 32.462238,319.901672 32.727444,293.404480 
	C32.964035,269.766052 43.306343,251.159332 62.323128,237.360764 
	C67.980934,233.255478 74.007576,229.659576 79.848145,225.804428 
	C81.488106,224.721939 83.425713,223.976028 84.611214,221.643799 
	C82.791245,218.950592 80.825325,216.112793 78.931236,213.227844 
	C48.385929,166.703629 75.698990,102.294846 130.312622,91.530037 
	C152.075943,87.240295 171.957199,91.406586 190.494232,103.019897 
	C193.437668,104.863937 195.257935,105.099945 198.203156,102.663544 
	C232.308182,74.450523 280.816040,74.222832 315.196259,102.115143 
	C318.604004,104.879814 320.890839,104.589203 324.366730,102.450104 
	C372.248871,72.983406 433.116730,98.022873 445.695404,152.530502 
	C451.158661,176.204529 446.252441,198.085663 432.009888,217.820419 
	C431.051910,219.147812 429.701416,220.261215 429.614899,222.755447 
	C434.734283,226.107162 440.041931,229.787369 445.544708,233.147964 
	C465.335419,245.234253 477.519775,262.401764 480.849518,285.537567 
	C481.203522,287.997314 481.322998,290.509857 481.326050,292.998169 
	C481.359314,320.164612 481.360687,347.331085 481.341949,374.497559 
	C481.334381,385.444946 474.627869,392.246368 463.590485,392.281250 
	C440.757538,392.353424 417.923035,392.417969 395.091980,392.196106 
	C390.391418,392.150452 388.957703,393.680267 389.241669,398.219147 
	C389.584412,403.697449 389.352112,409.214233 389.304810,414.713837 
	C389.210358,425.693085 382.546906,432.383972 371.497559,432.390106 
	C308.498322,432.425110 245.499100,432.412903 181.999878,432.417053 
M356.019196,338.500000 
	C355.970764,331.670685 356.077942,324.836029 355.842499,318.013153 
	C355.295593,302.162201 347.800018,290.071808 334.926178,281.322296 
	C323.910583,273.835724 312.553284,266.853546 301.417908,259.540466 
	C298.541901,257.651703 296.053650,257.275543 292.648315,258.668427 
	C268.723389,268.454163 244.720474,268.485474 220.845352,258.384979 
	C218.275360,257.297729 216.241562,257.345245 213.875610,258.904541 
	C202.335037,266.510437 190.611359,273.840790 179.130142,281.533783 
	C165.430313,290.713409 158.318085,303.680115 158.246017,320.229309 
	C158.138657,344.884613 158.319534,369.541534 158.120605,394.195709 
	C158.083878,398.746887 159.710052,399.748199 163.938675,399.740601 
	C226.077713,399.629181 288.217102,399.626099 350.356049,399.755005 
	C354.826263,399.764252 356.077118,398.234009 356.041504,393.975250 
	C355.889740,375.818024 356.002747,357.658630 356.019196,338.500000 
M198.767548,183.658463 
	C198.894638,184.141296 199.050339,184.618607 199.144714,185.107758 
	C205.396027,217.505112 237.379150,238.443741 269.999054,231.490250 
	C301.829956,224.704910 322.921295,190.923859 314.525513,159.434296 
	C308.259277,135.931839 292.770050,120.987434 269.140442,115.876122 
	C246.452698,110.968552 227.050476,118.283760 211.830750,135.754013 
	C200.084503,149.237167 196.518982,165.298141 198.767548,183.658463 
M114.297112,244.120056 
	C112.609962,243.773819 111.468719,244.899597 110.239182,245.690445 
	C101.142296,251.541565 92.057335,257.411346 82.983864,263.298737 
	C71.260262,270.905701 65.695023,282.079956 65.443901,295.689362 
	C65.084641,315.159576 65.425758,334.641876 65.289009,354.117737 
	C65.262520,357.889832 66.693001,359.013092 70.285423,358.987244 
	C86.764969,358.868622 103.246826,358.841644 119.725578,359.007446 
	C123.740517,359.047852 124.888222,357.509949 124.829170,353.706879 
	C124.658607,342.722687 124.495033,331.725067 124.840057,320.748810 
	C125.696625,293.498596 136.380737,271.223236 158.911789,255.170639 
	C161.753281,253.146194 164.605148,251.136276 167.452209,249.119614 
	C149.188187,253.260147 131.831161,251.634460 114.297112,244.120056 
M359.151917,250.633514 
	C355.467255,250.114471 351.782623,249.595428 348.097961,249.076385 
	C349.543762,251.019363 351.260864,252.223923 352.986359,253.416367 
	C377.095123,270.077271 389.075012,293.140961 389.307373,322.364960 
	C389.389435,332.684570 389.512909,343.010162 389.244507,353.323303 
	C389.129913,357.725525 390.601624,359.086975 394.960846,359.028503 
	C410.937714,358.814148 426.921539,358.781494 442.897400,359.027435 
	C447.635864,359.100342 448.790009,357.385406 448.740967,352.924957 
	C448.534271,334.117767 448.727783,315.306641 448.631195,296.497650 
	C448.557526,282.145966 442.681335,270.802826 430.521545,262.925171 
	C422.561218,257.768127 414.423004,252.869247 406.652954,247.441696 
	C402.539673,244.568481 399.028656,244.207687 394.263947,246.052185 
	C383.315063,250.290741 371.861633,252.225861 359.151917,250.633514 
M149.350967,123.214500 
	C118.859230,120.892197 93.751114,149.813217 100.346352,180.544144 
	C106.712639,210.208237 140.807068,226.874329 167.474854,213.245697 
	C171.060699,211.413147 172.289200,209.548721 170.656693,205.453629 
	C166.623886,195.337402 164.755798,184.701965 164.740402,173.808197 
	C164.722305,161.017563 167.320282,148.698410 172.478149,137.012619 
	C174.212509,133.083206 173.302841,130.861694 169.689316,129.004196 
	C163.566162,125.856636 157.282104,123.387436 149.350967,123.214500 
M352.027100,125.446442 
	C349.172394,126.800934 346.303650,128.126862 343.466888,129.517960 
	C340.632324,130.908005 339.796417,132.730667 341.209412,135.954346 
	C351.357208,159.105881 352.263611,182.625214 343.254608,206.325760 
	C341.908417,209.867233 343.014984,211.371063 346.029388,212.936386 
	C375.139374,228.052521 412.461700,207.229568 414.631104,174.590408 
	C416.907806,140.336990 385.726654,115.461433 352.027100,125.446442 
z"/>
</svg>