<?xml version="1.0" encoding="utf-8"?>
<!-- Svg Vector Icons : http://www.onlinewebfonts.com/icon -->
<!DOCTYPE svg PUBLIC "-//W3C//DTD SVG 1.1//EN" "http://www.w3.org/Graphics/SVG/1.1/DTD/svg11.dtd">
<svg version="1.1" xmlns="http://www.w3.org/2000/svg" xmlns:xlink="http://www.w3.org/1999/xlink" x="0px" y="0px" viewBox="0 0 256 256" enable-background="new 0 0 256 256" xml:space="preserve">
<metadata> Svg Vector Icons : http://www.onlinewebfonts.com/icon </metadata>
<g><g><g><path fill="#000000" d="M61.8,7.4c-2.8,1-5.6,3.4-7.3,6.2l-1.4,2.4L53,106.4c-0.1,49.7-0.3,90.3-0.5,90.3c-0.2,0-5.1-4.7-10.8-10.5c-12-12.1-13.2-12.8-19-12.4c-9.8,0.7-15.5,10.7-11.2,19.5c0.7,1.4,10,11,28,29.1l27,26.9l27.4-27.4c24.8-24.8,27.5-27.7,28.3-30c3-9-3.4-18.2-12.7-18.2c-5.3,0-6.9,1.2-18.4,12.7c-5.6,5.7-10.4,10.3-10.6,10.3s-0.5-40.6-0.5-90.3l-0.2-90.3l-1.4-2.4C74.8,7.8,68,5.2,61.8,7.4z"/><path fill="#000000" d="M110.4,47.8c-5.1,1.8-8.1,7.3-6.9,12.8c0.7,3.1,4.3,7,7.3,7.8s124.8,0.8,127.5,0c4.4-1.4,7.6-5.7,7.6-10.4c0-4.8-3.2-9-7.6-10.4C235.3,46.6,113,46.8,110.4,47.8z"/><path fill="#000000" d="M109.6,85.6c-7.6,3.3-8.5,14-1.6,18.9l2.2,1.5h37.2h37.2l2.2-1.5c6.8-4.8,6.1-14.9-1.2-18.7c-1.8-0.9-3.5-1-38.1-1C116.4,84.9,111.1,85,109.6,85.6z"/><path fill="#000000" d="M110.1,121.1c-4.2,1.7-6.7,5.5-6.7,10.2c0,3.7,1.7,7,4.8,9l2.1,1.4l17.2,0.2c19.4,0.2,20,0.1,23.2-3.5c4.8-5.4,3.2-13.5-3.3-16.9c-1.8-0.9-3.1-1-19-0.9C118.5,120.6,110.9,120.8,110.1,121.1z"/></g></g></g>
</svg>